<?xml version="1.0" encoding="UTF-8" standalone="no"?>
<svg
   width="22.5"
   height="28"
   viewBox="0 0 22.5 28"
   fill="none"
   version="1.1"
   id="svg1"
   sodipodi:docname="cart.svg"
   inkscape:version="1.3 (0e150ed6c4, 2023-07-21)"
   xmlns:inkscape="http://www.inkscape.org/namespaces/inkscape"
   xmlns:sodipodi="http://sodipodi.sourceforge.net/DTD/sodipodi-0.dtd"
   xmlns="http://www.w3.org/2000/svg"
   xmlns:svg="http://www.w3.org/2000/svg">
  <defs
     id="defs1" />
  <sodipodi:namedview
     id="namedview1"
     pagecolor="#8b8b8b"
     bordercolor="#000000"
     borderopacity="0.25"
     inkscape:showpageshadow="2"
     inkscape:pageopacity="0.0"
     inkscape:pagecheckerboard="true"
     inkscape:deskcolor="#d1d1d1"
     inkscape:zoom="11.313709"
     inkscape:cx="13.037281"
     inkscape:cy="23.113553"
     inkscape:window-width="1920"
     inkscape:window-height="1001"
     inkscape:window-x="1911"
     inkscape:window-y="-9"
     inkscape:window-maximized="1"
     inkscape:current-layer="svg1" />
  <path
     fill-rule="evenodd"
     clip-rule="evenodd"
     d="m 3.428959,15.290862 h 1.9550373 c 2.843e-4,0.358341 0.1983092,0.703246 0.5406361,0.874421 0.4829312,0.241459 1.0701633,0.04571 1.3116339,-0.43721 l 0.2185934,-0.437211 h 7.5902383 l 0.218557,0.437211 c 0.241551,0.48293 0.828717,0.678669 1.311703,0.43721 0.342323,-0.171175 0.540354,-0.51608 0.540592,-0.874421 h 1.955059 v 1.955262 H 3.428959 Z m 12.824604,-1.955259 h 2.817446 c 1.079887,0 1.955298,0.875406 1.955298,1.955259 v 1.955262 c 0,0.821217 -0.506334,1.524194 -1.223834,1.813847 0.0033,0.04668 0.0051,0.09387 0.0051,0.141368 0,0.142653 -0.01549,0.284961 -0.04656,0.424216 l -1.520761,6.843364 C 18.041517,27.363563 17.247999,28 16.331649,28 H 6.1684314 C 5.25201,28 4.4585369,27.363563 4.2597485,26.468919 L 2.7389933,19.625549 C 2.6966671,19.435029 2.683679,19.244861 2.697046,19.059735 1.9797909,18.770087 1.4736931,18.067188 1.4736931,17.246124 v -1.955262 c 0,-1.079853 0.8754059,-1.955259 1.955261,-1.955259 H 6.2464473 L 8.4203024,8.9878818 C 8.6617726,8.5049521 9.2490081,8.309213 9.731935,8.5506703 c 0.482926,0.241469 0.678669,0.8287047 0.43721,1.3116326 L 8.4324923,13.335603 H 14.067503 L 12.330767,9.8623029 C 12.089331,9.379375 12.285138,8.7921393 12.768,8.5506703 13.250988,8.309213 13.838151,8.5049493 14.079701,8.9878818 Z M 4.6476913,19.201336 H 17.852335 l -1.520756,6.843478 H 6.168437 Z"
     fill="#ffffff"
     id="path1"
     style="fill:#ffffff;stroke-width:1.17316" />
</svg>
