<?xml version="1.0" encoding="UTF-8" standalone="no"?>
<svg
   width="27"
   height="40"
   viewBox="0 0 27 40"
   fill="none"
   version="1.1"
   id="svg2"
   sodipodi:docname="discord-hover.svg"
   inkscape:version="1.3 (0e150ed6c4, 2023-07-21)"
   xmlns:inkscape="http://www.inkscape.org/namespaces/inkscape"
   xmlns:sodipodi="http://sodipodi.sourceforge.net/DTD/sodipodi-0.dtd"
   xmlns="http://www.w3.org/2000/svg"
   xmlns:svg="http://www.w3.org/2000/svg">
  <defs
     id="defs2" />
  <sodipodi:namedview
     id="namedview2"
     pagecolor="#5a5a5a"
     bordercolor="#000000"
     borderopacity="0.45490196"
     inkscape:showpageshadow="2"
     inkscape:pageopacity="0.0"
     inkscape:pagecheckerboard="true"
     inkscape:deskcolor="#d1d1d1"
     inkscape:zoom="11.593605"
     inkscape:cx="-9.0135898"
     inkscape:cy="20.744195"
     inkscape:window-width="1920"
     inkscape:window-height="1001"
     inkscape:window-x="1911"
     inkscape:window-y="-9"
     inkscape:window-maximized="1"
     inkscape:current-layer="svg2" />
  <path
     style="fill:#5f5fd3;stroke-width:0.119256"
     d="M 7.5470816,32.684954 C 5.9544908,32.49309 4.4780723,31.779703 3.3967821,30.679582 L 2.8073913,30.079925 2.8383731,28.97436 c 0.074709,-2.665916 1.0921155,-6.66861 2.3116032,-9.09434 0.4207715,-0.836974 0.4326837,-0.847341 1.7849716,-1.553372 1.1087486,-0.57888 2.5605226,-1.014422 3.3610771,-1.008346 0.446868,0.0035 0.382867,0.04363 -0.7633775,0.480026 -1.3670766,0.520463 -2.7644636,1.272055 -3.3705741,1.812882 -0.4472317,0.39906 -0.4095465,0.389664 1.1036507,-0.27513 4.0306949,-1.77081 9.0756709,-1.678644 12.8619459,0.234972 0.41658,0.210545 0.782346,0.35788 0.812813,0.327414 0.184422,-0.184423 -2.043012,-1.488641 -3.428782,-2.007637 -0.583518,-0.21854 -1.061455,-0.437593 -1.062087,-0.486786 -0.0019,-0.150319 0.834789,-0.0999 1.660824,0.10005 0.856546,0.207351 2.72682,1.0591 3.275741,1.49182 0.685358,0.540272 1.953086,3.847859 2.516304,6.5652 0.177593,0.856827 0.336342,2.113019 0.379543,3.003338 l 0.07426,1.530456 -0.771958,0.735416 c -1.162624,1.107583 -2.920412,1.861498 -4.352045,1.866588 -0.448184,0.0017 -0.542557,-0.05416 -0.983865,-0.581255 -0.268472,-0.320661 -0.487929,-0.629236 -0.487683,-0.685724 2.44e-4,-0.05649 0.255155,-0.205701 0.566466,-0.331585 0.311313,-0.125888 0.834349,-0.40092 1.162304,-0.611193 0.640517,-0.410677 1.456398,-1.201719 1.349604,-1.308512 -0.03586,-0.03586 -0.4615,0.146641 -0.945901,0.405522 -1.828793,0.977372 -4.150102,1.564177 -6.187638,1.564177 -2.077307,0 -4.5547051,-0.62634 -6.4100326,-1.620593 -0.5411237,-0.289987 -0.9838633,-0.479087 -0.9838633,-0.420223 0,0.24206 1.4852376,1.458198 2.1939285,1.796426 0.4190746,0.200005 0.8249237,0.363645 0.9018867,0.363645 0.1209371,0 -0.8829329,1.394893 -1.0620903,1.475781 -0.036297,0.01638 -0.395539,-0.0099 -0.7983162,-0.05843 z m 3.5360604,-4.66709 c 0.718374,-0.488923 0.893211,-0.842599 0.893211,-1.806876 0,-0.763926 -0.03908,-0.916398 -0.334121,-1.3032 -0.832119,-1.090965 -2.2645225,-1.068396 -3.0916459,0.04871 -0.6935424,0.936694 -0.410481,2.450039 0.5804627,3.103356 0.4923894,0.324625 1.4434802,0.304167 1.9520932,-0.04198 z m 6.80858,-9.54e-4 c 0.505598,-0.335997 0.941874,-1.177954 0.941874,-1.817699 0,-0.586642 -0.417525,-1.449625 -0.855726,-1.768702 -0.501597,-0.365239 -1.408053,-0.401747 -1.98091,-0.0798 -1.294708,0.727667 -1.385995,2.81131 -0.159675,3.644616 0.577231,0.392238 1.482364,0.401741 2.054437,0.02156 z"
     id="path3" />
</svg>
