<?xml version="1.0" encoding="UTF-8" standalone="no"?>
<svg
   version="1.1"
   width="22.5"
   height="28"
   style="clip-rule:evenodd;fill-rule:evenodd;image-rendering:optimizeQuality;shape-rendering:geometricPrecision;text-rendering:geometricPrecision"
   id="svg4"
   sodipodi:docname="icons8_rules_144px.svg"
   inkscape:version="1.3.2 (091e20e, 2023-11-25, custom)"
   xmlns:inkscape="http://www.inkscape.org/namespaces/inkscape"
   xmlns:sodipodi="http://sodipodi.sourceforge.net/DTD/sodipodi-0.dtd"
   xmlns="http://www.w3.org/2000/svg"
   xmlns:svg="http://www.w3.org/2000/svg">
  <defs
     id="defs4" />
  <sodipodi:namedview
     id="namedview4"
     pagecolor="#505050"
     bordercolor="#eeeeee"
     borderopacity="1"
     inkscape:showpageshadow="0"
     inkscape:pageopacity="0"
     inkscape:pagecheckerboard="0"
     inkscape:deskcolor="#505050"
     inkscape:zoom="16.125963"
     inkscape:cx="8.1235459"
     inkscape:cy="23.781526"
     inkscape:window-width="1920"
     inkscape:window-height="1017"
     inkscape:window-x="-8"
     inkscape:window-y="-8"
     inkscape:window-maximized="1"
     inkscape:current-layer="svg4" />
  <g
     id="g1"
     transform="matrix(0.16678592,0,0,0.16678592,-0.80659491,6.4681508)">
    <path
       style="opacity:0.977"
       fill="#fefffe"
       d="m 16.5,14.5 c 30.6685,-0.1666 61.3351,0 92,0.5 3.5,1.5 6,4 7.5,7.5 0.5,26.3312 0.667,52.6646 0.5,79 4.679,-0.166 9.345,0.001 14,0.5 1.833,0.5 3,1.667 3.5,3.5 0.667,5 0.667,10 0,15 -1.5,3.5 -4,6 -7.5,7.5 -29,0.667 -58,0.667 -87,0 -6.1667,-2.167 -10.3333,-6.333 -12.5,-12.5 -0.5,-24.6644 -0.6666,-49.3311 -0.5,-74 -4.6785,0.1658 -9.3452,-8e-4 -14,-0.5 -1.8333,-0.5 -3,-1.6667 -3.5,-3.5 -0.66667,-5 -0.66667,-10 0,-15 1.6904,-3.5209 4.1904,-6.1876 7.5,-8 z m 6,9 c 22.3333,0 44.6667,0 67,0 0,3 0,6 0,9 -24,0 -48,0 -72,0 -0.3552,-4.3751 1.3115,-7.3751 5,-9 z m 78,1 c 3.662,-0.8629 5.828,0.4704 6.5,4 0.5,30.3315 0.667,60.6648 0.5,91 -20.6694,0.167 -41.336,0 -62,-0.5 -5.5806,-1.25 -8.7472,-4.75 -9.5,-10.5 -0.5,-22.3308 -0.6666,-44.6642 -0.5,-67 19.6695,0.1666 39.3362,0 59,-0.5 1.8333,-0.5 3,-1.6667 3.5,-3.5 0.146,-4.5148 0.9793,-8.8482 2.5,-13 z m 16,86 c 3,0 6,0 9,0 -0.023,2.427 -0.523,4.76 -1.5,7 -2,1.333 -4,1.333 -6,0 -0.977,-2.24 -1.477,-4.573 -1.5,-7 z"
       id="path1" />
  </g>
  <g
     id="g2"
     transform="matrix(0.16678592,0,0,0.16678592,-0.80659491,6.4681508)">
    <path
       style="opacity:0.967"
       fill="#fefffe"
       d="m 48.5,53.5 c 15.337,-0.1666 30.6703,1e-4 46,0.5 1.3333,2.6667 1.3333,5.3333 0,8 -15.3333,0.6667 -30.6667,0.6667 -46,0 -1.2862,-2.8316 -1.2862,-5.6649 0,-8.5 z"
       id="path2" />
  </g>
  <g
     id="g3"
     transform="matrix(0.16678592,0,0,0.16678592,-0.80659491,6.4681508)">
    <path
       style="opacity:0.967"
       fill="#fefffe"
       d="m 48.5,74.5 c 15.337,-0.1666 30.6703,1e-4 46,0.5 1.3333,2.6667 1.3333,5.3333 0,8 -15.3333,0.6667 -30.6667,0.6667 -46,0 -1.2862,-2.8316 -1.2862,-5.6649 0,-8.5 z"
       id="path3" />
  </g>
  <g
     id="g4"
     transform="matrix(0.16678592,0,0,0.16678592,-0.80659491,6.4681508)">
    <path
       style="opacity:0.967"
       fill="#fefffe"
       d="m 48.5,95.5 c 15.337,-0.1666 30.6703,1e-4 46,0.5 1.3333,2.6667 1.3333,5.333 0,8 -15.3333,0.667 -30.6667,0.667 -46,0 -1.2862,-2.832 -1.2862,-5.6649 0,-8.5 z"
       id="path4" />
  </g>
</svg>
