<?xml version="1.0" encoding="UTF-8" standalone="no"?>
<svg
   width="21"
   height="24"
   viewBox="0 0 21 24"
   fill="none"
   version="1.1"
   id="svg1"
   sodipodi:docname="vk.svg"
   inkscape:version="1.3 (0e150ed6c4, 2023-07-21)"
   xmlns:inkscape="http://www.inkscape.org/namespaces/inkscape"
   xmlns:sodipodi="http://sodipodi.sourceforge.net/DTD/sodipodi-0.dtd"
   xmlns="http://www.w3.org/2000/svg"
   xmlns:svg="http://www.w3.org/2000/svg">
  <defs
     id="defs1" />
  <sodipodi:namedview
     id="namedview1"
     pagecolor="#464646"
     bordercolor="#000000"
     borderopacity="0.25"
     inkscape:showpageshadow="2"
     inkscape:pageopacity="0.0"
     inkscape:pagecheckerboard="true"
     inkscape:deskcolor="#d1d1d1"
     inkscape:zoom="22.20652"
     inkscape:cx="7.0925115"
     inkscape:cy="10.334803"
     inkscape:window-width="1600"
     inkscape:window-height="821"
     inkscape:window-x="-9"
     inkscape:window-y="-9"
     inkscape:window-maximized="1"
     inkscape:current-layer="svg1" />
  <path
     d="m 20.194991,12.55491 c 0.144404,-0.479629 0,-0.831358 -0.682828,-0.831358 h -2.261996 c -0.575555,0 -0.838578,0.304282 -0.982983,0.638476 0,0 -1.15008,2.804542 -2.779789,4.62301 -0.526046,0.529139 -0.766376,0.696236 -1.053123,0.696236 -0.143373,0 -0.351728,-0.167097 -0.351728,-0.646726 V 12.55491 c 0,-0.575555 -0.166066,-0.831358 -0.645695,-0.831358 H 7.882431 c -0.3589487,0 -0.5755557,0.266117 -0.5755557,0.519857 0,0.54461 0.8148549,0.670449 0.8984033,2.205264 v 3.329559 c 0,0.729243 -0.1309957,0.862302 -0.419805,0.862302 -0.7663761,0 -2.631259,-2.814859 -3.7380175,-6.037145 C 3.8318805,11.977292 3.6142421,11.724584 3.0366235,11.724584 H 0.77565927 C 0.12893272,11.724584 0,12.028866 0,12.363059 0,12.963368 0.76637611,15.933978 3.5698892,19.862816 5.438898,22.545639 8.0701571,24 10.467275,24 c 1.436826,0 1.614237,-0.322848 1.614237,-0.879837 v -2.027845 c 0,-0.645695 0.137185,-0.775659 0.592059,-0.775659 0.334194,0 0.90975,0.16916 2.251681,1.461582 1.532753,1.532743 1.786492,2.220728 2.647763,2.220728 h 2.260964 c 0.645695,0 0.968543,-0.322848 0.78288,-0.960291 -0.203198,-0.634349 -0.935536,-1.557498 -1.907173,-2.649816 -0.528109,-0.623003 -1.317177,-1.293454 -1.557507,-1.628679 -0.335226,-0.432182 -0.238268,-0.623003 0,-1.006706 0.001,0.001 2.756065,-3.879328 3.042812,-5.198567 z"
     fill="#ffffff"
     id="path1"
     style="stroke-width:1.03146" />
</svg>
